<svg id="iconspace_Cloud_25px" xmlns="http://www.w3.org/2000/svg" width="75.65" height="75.65" viewBox="0 0 75.65 75.65">
  <path id="Cloud" d="M0,0H75.65V75.65H0Z" fill="none"/>
  <path id="Cloud-2" data-name="Cloud" d="M49.231,18.156A15.132,15.132,0,0,0,47,18.321,15.692,15.692,0,0,0,34.566,12.1a16.1,16.1,0,0,0-15.5,12.744,10.608,10.608,0,0,0-6.851,11.465H10.024a9.836,9.836,0,1,1,0-19.669h.247C10.982,7.346,18.195,0,27.045,0a16.76,16.76,0,0,1,15.1,10.12,13.8,13.8,0,0,1,1.923-.134,13.371,13.371,0,0,1,13.15,10.483A14.793,14.793,0,0,0,49.231,18.156Z" transform="translate(6.052 15.13)" fill="#44d5e9"/>
  <path id="Cloud-3" data-name="Cloud" d="M31.308,27.234H7.565A7.565,7.565,0,0,1,6.59,12.166C7.276,5.343,12.748,0,19.436,0A12.793,12.793,0,0,1,30.51,6.6,11.964,11.964,0,0,1,34.1,6.052c6.211,0,11.289,4.716,11.289,10.591S40.312,27.234,34.1,27.234a12.121,12.121,0,0,1-1.559-.1A7.607,7.607,0,0,1,31.308,27.234Z" transform="translate(21.182 30.26)" fill="#3b5afb"/>
</svg>
