<svg xmlns="http://www.w3.org/2000/svg" xmlns:xlink="http://www.w3.org/1999/xlink" width="1921" height="1061.425" viewBox="0 0 1921 1061.425">
  <defs>
    <clipPath id="clip-path">
      <rect id="Rectangle_31" data-name="Rectangle 31" width="1920.249" height="999" fill="#fff"/>
    </clipPath>
    <linearGradient id="linear-gradient" x1="0.706" y1="0.926" x2="0" y2="0.688" gradientUnits="objectBoundingBox">
      <stop offset="0" stop-color="#44d5e9"/>
      <stop offset="1" stop-color="#3f73dc"/>
    </linearGradient>
    <linearGradient id="linear-gradient-2" x1="0.5" x2="0.5" y2="1" gradientUnits="objectBoundingBox">
      <stop offset="0" stop-color="#fff" stop-opacity="0.051"/>
      <stop offset="1" stop-color="#fff" stop-opacity="0"/>
    </linearGradient>
    <linearGradient id="linear-gradient-3" x1="0.5" x2="0.5" y2="1" gradientUnits="objectBoundingBox">
      <stop offset="0" stop-color="#fff" stop-opacity="0.102"/>
      <stop offset="1" stop-color="#fff" stop-opacity="0"/>
    </linearGradient>
  </defs>
  <g id="Slider_Background" data-name="Slider Background" transform="translate(0.751)">
    <g id="Mask_Group_1" data-name="Mask Group 1" clip-path="url(#clip-path)">
      <path id="Path_4" data-name="Path 4" d="M493.041.031l1616.134.1c272.3.017,493.054,220.765,493.072,493.054l.045,728.034c.017,272.289-220.712,493.009-493.01,492.992l-1616.134-.1C220.849,1714.094.093,1493.35.076,1221.057L.031,493.023C.014,220.734,220.742.014,493.041.031Z" transform="matrix(0.799, -0.602, 0.602, 0.799, -506.83, -173.615)" fill="url(#linear-gradient)"/>
    </g>
    <g id="Group_915" data-name="Group 915" transform="translate(-0.751 135.359)">
      <path id="Path_1013" data-name="Path 1013" d="M725.21,863.641c2.989.261,2.51-588,0-589.857,75.01-31.144,235.479-61.212,361.484,41.308,329.854,268.373,442.287,56.548,655.648-71.452s414.361,170.473,668.087,57.333S2570.979,39.761,2645.459,0V863.641S728.547,859.918,725.21,863.641Z" transform="translate(-724.459)" fill="url(#linear-gradient-2)"/>
      <path id="Path_54" data-name="Path 54" d="M5095.219,2006.75v-467.2c-180.357-389.6-170.35-23.971-444.785-41.867s-375.856-184.92-650.289,107.373-328.313-189.625-599.441-65.505c-118.482,54.24-185.773-6.083-225.734-94.625-1-4.167-1,559.833,0,561.833C3655.032,2147.21,5095.219,2006.75,5095.219,2006.75Z" transform="translate(-3174.22 -1143.113)" opacity="0.7" fill="url(#linear-gradient-3)"/>
    </g>
  </g>
</svg>
