<svg xmlns="http://www.w3.org/2000/svg" xmlns:xlink="http://www.w3.org/1999/xlink" width="1920.75" height="1061.426" viewBox="0 0 1920.75 1061.426">
  <defs>
    <clipPath id="clip-path">
      <rect id="Rectangle_31" data-name="Rectangle 31" width="1920" height="999" fill="#fff"/>
    </clipPath>
    <linearGradient id="linear-gradient" x1="0.706" y1="0.926" x2="0" y2="0.688" gradientUnits="objectBoundingBox">
      <stop offset="0" stop-color="#44d5e9"/>
      <stop offset="1" stop-color="#3f73dc"/>
    </linearGradient>
    <linearGradient id="linear-gradient-2" x1="0.5" x2="0.5" y2="1" gradientUnits="objectBoundingBox">
      <stop offset="0" stop-color="#fff" stop-opacity="0.051"/>
      <stop offset="1" stop-color="#fff" stop-opacity="0"/>
    </linearGradient>
    <linearGradient id="linear-gradient-3" x1="0.5" x2="0.5" y2="1" gradientUnits="objectBoundingBox">
      <stop offset="0" stop-color="#fff" stop-opacity="0.102"/>
      <stop offset="1" stop-color="#fff" stop-opacity="0"/>
    </linearGradient>
  </defs>
  <g id="Slider_Background" data-name="Slider Background" transform="translate(0.75)">
    <g id="Mask_Group_1" data-name="Mask Group 1" clip-path="url(#clip-path)">
      <path id="Path_4" data-name="Path 4" d="M493,0H2109c272.276,0,493,220.724,493,493v728c0,272.276-220.724,493-493,493H493C220.724,1714,0,1493.276,0,1221V493C0,220.724,220.724,0,493,0Z" transform="matrix(0.799, -0.602, 0.602, 0.799, -506.764, -173.615)" fill="url(#linear-gradient)"/>
    </g>
    <g id="Group_915" data-name="Group 915">
      <path id="Path_1013" data-name="Path 1013" d="M725.21,863.641c2.989.261,2.51-588,0-589.857,75-31.144,235.448-61.212,361.437,41.308,329.811,268.373,442.23,56.548,655.563-71.452s414.307,170.473,668,57.333S2570.739,39.761,2645.21,0V863.641S728.547,859.918,725.21,863.641Z" transform="translate(-725.21 135.359)" fill="url(#linear-gradient-2)"/>
      <path id="Path_54" data-name="Path 54" d="M5094.971,2006.754V1539.545c-180.334-389.6-170.328-23.971-444.727-41.867s-375.807-184.92-650.205,107.373-328.271-189.625-599.363-65.505c-118.467,54.24-185.749-6.083-225.705-94.625-1-4.167-1,559.833,0,561.833C3654.971,2147.212,5094.971,2006.754,5094.971,2006.754Z" transform="translate(-3174.971 -1007.754)" opacity="0.7" fill="url(#linear-gradient-3)"/>
    </g>
  </g>
</svg>
