<svg xmlns="http://www.w3.org/2000/svg" xmlns:xlink="http://www.w3.org/1999/xlink" width="426" height="561.832" viewBox="0 0 426 561.832">
  <defs>
    <linearGradient id="linear-gradient" x1="0.531" x2="0.535" y2="1" gradientUnits="objectBoundingBox">
      <stop offset="0" stop-color="#6bf3cd"/>
      <stop offset="1" stop-color="#42b7dd"/>
    </linearGradient>
    <linearGradient id="linear-gradient-2" x1="0.5" x2="0.5" y2="1" gradientUnits="objectBoundingBox">
      <stop offset="0" stop-color="#fff" stop-opacity="0.102"/>
      <stop offset="1" stop-color="#fff" stop-opacity="0.02"/>
    </linearGradient>
  </defs>
  <g id="inco-app-pricing-bg1" transform="translate(-298 -5041)">
    <path id="Rectangle_24" data-name="Rectangle 24" d="M5,0H426V559H5a5,5,0,0,1-5-5V5A5,5,0,0,1,5,0Z" transform="translate(298 5041)" fill="url(#linear-gradient)"/>
    <path id="Path_200" data-name="Path 200" d="M4492.08,1471.07c-149.724-37.487-252.365-83.21-424.223,67.807,1.3,77.413,0,289.709,0,289.709H4492.08S4493.8,1514.59,4492.08,1471.07Z" transform="translate(-3768.971 3774.246)" fill="url(#linear-gradient-2)"/>
    <path id="Path_199" data-name="Path 199" d="M3918.17,1674.48c-177.041,107.68-253.094-149.276-423.368-155.714-2.576,54.576,0,217.149,0,217.149H3918.17S3919.45,1722.69,3918.17,1674.48Z" transform="translate(-3194.971 3861.246)" fill="url(#linear-gradient-2)"/>
  </g>
</svg>
