<svg id="iconspace_Option_25px" xmlns="http://www.w3.org/2000/svg" width="58" height="58" viewBox="0 0 58 58">
  <path id="Option" d="M0,0H58V58H0Z" fill="none"/>
  <path id="Option-2" data-name="Option" d="M26.68,46.4H19.719a1.164,1.164,0,0,1-1.134-.921l-.963-4.573a18.506,18.506,0,0,1-3-1.242l-3.915,2.554a1.16,1.16,0,0,1-1.453-.152L4.335,37.143a1.164,1.164,0,0,1-.152-1.453l2.554-3.915a18.409,18.409,0,0,1-1.242-3L.921,27.814A1.164,1.164,0,0,1,0,26.68V19.719a1.164,1.164,0,0,1,.921-1.134l4.573-.963a18.506,18.506,0,0,1,1.242-3L4.182,10.709a1.166,1.166,0,0,1,.152-1.453L9.256,4.335a1.16,1.16,0,0,1,1.453-.152l3.915,2.554a18.505,18.505,0,0,1,3-1.242L18.585.921A1.164,1.164,0,0,1,19.719,0H26.68a1.164,1.164,0,0,1,1.134.921l.963,4.573a18.41,18.41,0,0,1,3,1.242L35.69,4.182a1.16,1.16,0,0,1,1.453.152l4.921,4.921a1.166,1.166,0,0,1,.152,1.453l-2.554,3.915a18.505,18.505,0,0,1,1.242,3l4.573.963a1.164,1.164,0,0,1,.921,1.134V26.68a1.164,1.164,0,0,1-.921,1.134l-4.573.963a18.41,18.41,0,0,1-1.242,3l2.554,3.915a1.164,1.164,0,0,1-.152,1.453l-4.921,4.921a1.16,1.16,0,0,1-1.453.152l-3.915-2.554a18.409,18.409,0,0,1-3,1.242l-.963,4.573A1.164,1.164,0,0,1,26.68,46.4ZM23.2,13.921A9.28,9.28,0,1,0,32.481,23.2,9.29,9.29,0,0,0,23.2,13.921Z" transform="translate(4.64 4.64)" fill="#3b5afb"/>
  <path id="Option-3" data-name="Option" d="M6.96,13.92A6.96,6.96,0,1,0,0,6.96,6.96,6.96,0,0,0,6.96,13.92Z" transform="translate(20.88 20.88)" fill="#44d5e9"/>
</svg>
