<svg xmlns="http://www.w3.org/2000/svg" xmlns:xlink="http://www.w3.org/1999/xlink" width="151.72" height="71" viewBox="0 0 151.72 71"><defs><linearGradient id="linear-gradient" x1="0.733" y1="0.868" x2="0.256" y2="0.115" gradientUnits="objectBoundingBox"><stop offset="0" stop-color="#004c91"></stop><stop offset="0.07" stop-color="#005b9f"></stop><stop offset="0.29" stop-color="#0087c7"></stop><stop offset="0.487" stop-color="#00a7e4"></stop><stop offset="0.652" stop-color="#00bbf5"></stop><stop offset="0.765" stop-color="#00c2fc"></stop><stop offset="0.769" stop-color="#00c3fc"></stop><stop offset="0.857" stop-color="#00dcfd"></stop><stop offset="0.937" stop-color="#00ecfe"></stop><stop offset="1" stop-color="#00f2ff"></stop></linearGradient><linearGradient id="linear-gradient-2" x1="0.5" y1="-0.137" x2="0.5" y2="1.223" gradientUnits="objectBoundingBox"><stop offset="0" stop-color="#004c91"></stop><stop offset="0.207" stop-color="#0072b4"></stop><stop offset="0.436" stop-color="#0096d4"></stop><stop offset="0.652" stop-color="#00afeb"></stop><stop offset="0.846" stop-color="#00bffa"></stop><stop offset="1" stop-color="#00c5ff"></stop></linearGradient><linearGradient id="linear-gradient-3" x1="0.5" y1="-0.137" x2="0.5" y2="1.223" xlink:href="#linear-gradient-2"></linearGradient></defs><g id="Logo" transform="translate(-132 -55)"><g id="Path_1013" data-name="Path 1013" transform="translate(132 55)" fill="#fff"><path d="M 61 70.5 L 10 70.5 C 4.761680126190186 70.5 0.5 66.23831939697266 0.5 61 L 0.5 10 C 0.5 4.761680126190186 4.761680126190186 0.5 10 0.5 L 61 0.5 C 66.23831939697266 0.5 70.5 4.761680126190186 70.5 10 L 70.5 61 C 70.5 66.23831939697266 66.23831939697266 70.5 61 70.5 Z" stroke="none"></path><path d="M 10 1 C 5.037376403808594 1 1 5.037376403808594 1 10 L 1 61 C 1 65.96261596679688 5.037376403808594 70 10 70 L 61 70 C 65.96261596679688 70 70 65.96261596679688 70 61 L 70 10 C 70 5.037376403808594 65.96261596679688 1 61 1 L 10 1 M 10 0 L 61 0 C 66.52285003662109 0 71 4.477149963378906 71 10 L 71 61 C 71 66.52285003662109 66.52285003662109 71 61 71 L 10 71 C 4.477149963378906 71 0 66.52285003662109 0 61 L 0 10 C 0 4.477149963378906 4.477149963378906 0 10 0 Z" stroke="none" fill="#42b7dd"></path></g><g id="Group_910" data-name="Group 910" transform="translate(12 -160)"><g id="Group_7" data-name="Group 7" transform="translate(156.853 237.001)"><path id="Path_1" data-name="Path 1" d="M177.256,263.31h9.8L173.769,237h-9.8Z" transform="translate(-163.973 -237.001)" fill="url(#linear-gradient)"></path></g><path id="Path_2" data-name="Path 2" d="M141.771,263.31h-9.8L145.258,237h9.8Z" transform="translate(0 0)" fill="url(#linear-gradient-2)"></path><path id="Path_3" data-name="Path 3" d="M156.7,263.31h-9.8L160.191,237h9.8Z" transform="translate(-3.323 0)" fill="url(#linear-gradient-3)"></path></g><path id="Path_1015" data-name="Path 1015" d="M2.18.18a1.625,1.625,0,0,1-.94-.51A1.4,1.4,0,0,1,.9-1.28a2.032,2.032,0,0,1,.18-.8l4.78-11.5a.9.9,0,0,1,.92-.6.913.913,0,0,1,.9.6l4.78,11.5a2.032,2.032,0,0,1,.18.8,1.406,1.406,0,0,1-.34.94,1.6,1.6,0,0,1-.94.52L9.64-4H3.9Zm6.88-5.8L6.48-12.16l-.16.06.36.92L4.48-5.62Zm5.88-3.14a1.348,1.348,0,0,1,.41-1.04,1.786,1.786,0,0,1,1.25-.38v1.12l-.4.52.06.08a4.865,4.865,0,0,1,1.42-1.26,3.748,3.748,0,0,1,1.9-.46,4.008,4.008,0,0,1,2.78.95A3.231,3.231,0,0,1,23.42-6.7v3.42a3.146,3.146,0,0,1-1.1,2.52,4.249,4.249,0,0,1-2.86.94,3.854,3.854,0,0,1-1.73-.39,4.805,4.805,0,0,1-1.39-1.03l-.06.1a2.494,2.494,0,0,0,.42.44V2.82q0,1.36-1.76,1.36Zm4.26,7.4a2.866,2.866,0,0,0,1.84-.53,1.781,1.781,0,0,0,.66-1.47V-6.62a1.8,1.8,0,0,0-.66-1.5,2.941,2.941,0,0,0-1.86-.52,2.846,2.846,0,0,0-1.78.55,1.664,1.664,0,0,0-.72,1.37v3.46a1.676,1.676,0,0,0,.68,1.35A2.842,2.842,0,0,0,19.2-1.36Zm6.82-7.4a1.348,1.348,0,0,1,.41-1.04,1.786,1.786,0,0,1,1.25-.38v1.12l-.4.52.06.08a4.865,4.865,0,0,1,1.42-1.26,3.748,3.748,0,0,1,1.9-.46,4.008,4.008,0,0,1,2.78.95A3.231,3.231,0,0,1,34.5-6.7v3.42A3.146,3.146,0,0,1,33.4-.76a4.249,4.249,0,0,1-2.86.94,3.854,3.854,0,0,1-1.73-.39,4.805,4.805,0,0,1-1.39-1.03l-.06.1a2.5,2.5,0,0,0,.42.44V2.82q0,1.36-1.76,1.36Zm4.26,7.4a2.866,2.866,0,0,0,1.84-.53,1.781,1.781,0,0,0,.66-1.47V-6.62a1.8,1.8,0,0,0-.66-1.5,2.941,2.941,0,0,0-1.86-.52,2.846,2.846,0,0,0-1.78.55,1.664,1.664,0,0,0-.72,1.37v3.46a1.676,1.676,0,0,0,.68,1.35A2.842,2.842,0,0,0,30.28-1.36Z" transform="translate(223 112)" fill="#3f73dc"></path><path id="Path_1014" data-name="Path 1014" d="M1.77-18.24a2.632,2.632,0,0,1,1.05-2.25,4.905,4.905,0,0,1,2.97-.78v9.63l10.05-9.63a5,5,0,0,1,1.215,1.215,2.188,2.188,0,0,1,.465,1.185,1.5,1.5,0,0,1-.315.885,7.993,7.993,0,0,1-.945,1.035l-6,5.67L18.51-.99A2.885,2.885,0,0,1,16.08.27,2.818,2.818,0,0,1,13.77-.81L7.5-8.76,5.79-7.08v4.5A2.479,2.479,0,0,1,4.83-.42,5.321,5.321,0,0,1,1.77.27ZM25.35.27a6.5,6.5,0,0,1-2.805-.6,4.978,4.978,0,0,1-2.04-1.725A4.659,4.659,0,0,1,19.74-4.74a4.608,4.608,0,0,1,.81-2.715,5.174,5.174,0,0,1,2.2-1.77A7.539,7.539,0,0,1,25.83-9.84a6.658,6.658,0,0,1,2.475.435A6.432,6.432,0,0,1,30.33-8.1l.15-.15q-.27-.27-.93-.81v-.6a2.4,2.4,0,0,0-.87-1.95,3.707,3.707,0,0,0-2.43-.72,4.546,4.546,0,0,0-4.11,2.04,2.621,2.621,0,0,1-1.11-.675,1.425,1.425,0,0,1-.45-1.005,2.222,2.222,0,0,1,.81-1.65,5.845,5.845,0,0,1,2.19-1.2,9.626,9.626,0,0,1,3-.45,7.358,7.358,0,0,1,4.92,1.485A5.028,5.028,0,0,1,33.24-9.75v7.5A2.2,2.2,0,0,1,32.4-.33a4.6,4.6,0,0,1-2.64.6V-.96a8.285,8.285,0,0,0,.69-.75l-.12-.15A7.213,7.213,0,0,1,28.215-.27,6.626,6.626,0,0,1,25.35.27Zm.96-2.73a4.238,4.238,0,0,0,2.43-.6,1.954,1.954,0,0,0,.87-1.71,1.991,1.991,0,0,0-.885-1.71,4.038,4.038,0,0,0-2.385-.63,3.471,3.471,0,0,0-2.175.615,2.056,2.056,0,0,0-.8,1.725,2.021,2.021,0,0,0,.78,1.725A3.531,3.531,0,0,0,26.31-2.46ZM42.39.27a4.411,4.411,0,0,1-3.6-1.41,5.5,5.5,0,0,1-1.17-3.63v-7.44H34.53a3.382,3.382,0,0,1,.54-2.1A1.736,1.736,0,0,1,36.51-15h1.17v-2.49a1.869,1.869,0,0,1,.9-1.755,5.561,5.561,0,0,1,2.73-.525V-15H45.3a3.223,3.223,0,0,1-.57,2.145,2.326,2.326,0,0,1-1.83.645H41.37v7.29a2.225,2.225,0,0,0,.405,1.5,1.81,1.81,0,0,0,1.395.45,4.368,4.368,0,0,0,2.1-.57,1.969,1.969,0,0,1,.48.675,2.013,2.013,0,0,1,.18.825A2.008,2.008,0,0,1,45-.435,4.241,4.241,0,0,1,42.39.27Zm10.44,0a6.5,6.5,0,0,1-2.805-.6,4.978,4.978,0,0,1-2.04-1.725A4.659,4.659,0,0,1,47.22-4.74a4.608,4.608,0,0,1,.81-2.715,5.174,5.174,0,0,1,2.2-1.77A7.539,7.539,0,0,1,53.31-9.84a6.658,6.658,0,0,1,2.475.435A6.432,6.432,0,0,1,57.81-8.1l.15-.15q-.27-.27-.93-.81v-.6a2.4,2.4,0,0,0-.87-1.95,3.707,3.707,0,0,0-2.43-.72,4.546,4.546,0,0,0-4.11,2.04,2.621,2.621,0,0,1-1.11-.675,1.425,1.425,0,0,1-.45-1.005,2.222,2.222,0,0,1,.81-1.65,5.845,5.845,0,0,1,2.19-1.2,9.626,9.626,0,0,1,3-.45,7.358,7.358,0,0,1,4.92,1.485A5.028,5.028,0,0,1,60.72-9.75v7.5a2.2,2.2,0,0,1-.84,1.92,4.6,4.6,0,0,1-2.64.6V-.96a8.285,8.285,0,0,0,.69-.75l-.12-.15A7.213,7.213,0,0,1,55.695-.27,6.626,6.626,0,0,1,52.83.27Zm.96-2.73a4.238,4.238,0,0,0,2.43-.6,1.954,1.954,0,0,0,.87-1.71A1.991,1.991,0,0,0,56.2-6.48a4.038,4.038,0,0,0-2.385-.63,3.471,3.471,0,0,0-2.175.615A2.056,2.056,0,0,0,50.85-4.77a2.021,2.021,0,0,0,.78,1.725A3.531,3.531,0,0,0,53.79-2.46Z" transform="translate(223 86)"></path></g></svg>