<svg id="iconspace_Tab_25px" xmlns="http://www.w3.org/2000/svg" width="46" height="46" viewBox="0 0 46 46">
  <path id="Tab" d="M0,0H46V46H0Z" fill="none"/>
  <path id="Tab-2" data-name="Tab" d="M38.639,12.881H0V6.44A6.447,6.447,0,0,1,6.44,0H32.2a6.447,6.447,0,0,1,6.44,6.44v6.44ZM12.88,5.519a1.841,1.841,0,1,0,1.84,1.84A1.842,1.842,0,0,0,12.88,5.519Zm-5.521,0A1.841,1.841,0,1,0,9.2,7.359,1.842,1.842,0,0,0,7.359,5.519Z" transform="translate(3.68 3.68)" fill="#44d5e9"/>
  <path id="Tab-3" data-name="Tab" d="M38.64,0V17.46A6.44,6.44,0,0,1,32.2,23.9H6.44A6.44,6.44,0,0,1,0,17.46V0Z" transform="translate(3.68 18.42)" fill="#3b5afb"/>
</svg>
