<svg xmlns="http://www.w3.org/2000/svg" id="Component_1_1" data-name="Component 1 &#x2013; 1" width="28.34" height="31.212" viewBox="0 0 28.34 31.212"><g id="Group_965" data-name="Group 965" transform="translate(-26.549 -1)"><g id="Group_964" data-name="Group 964"><g id="Group_1" data-name="Group 1" transform="translate(26.549 1.001)"><path id="Path_59" data-name="Path 59" d="M68.347,10.717C64.722,8.689,58.9,5.433,49.876.379a2.176,2.176,0,0,0-1.914-.25L63.449,15.616Z" transform="translate(-46.474 -0.012)" fill="#32bbff"></path><path id="Path_60" data-name="Path 60" d="M25.037,1.93a2.225,2.225,0,0,0-.329.141,2.178,2.178,0,0,0-1.159,1.936v26.82a2.177,2.177,0,0,0,1.159,1.936,2.253,2.253,0,0,0,.329.141L40.524,17.417Z" transform="translate(-23.549 -1.813)" fill="#32bbff"></path><path id="Path_61" data-name="Path 61" d="M63.443,255.98,47.956,271.467a2.154,2.154,0,0,0,1.914-.25c8.754-4.9,14.508-8.12,18.175-10.165l.3-.169Z" transform="translate(-46.468 -240.376)" fill="#32bbff"></path></g><path id="Path_62" data-name="Path 62" d="M23.549,255.98v13.41a2.177,2.177,0,0,0,1.159,1.936,2.254,2.254,0,0,0,.329.141L40.524,255.98Z" transform="translate(3 -239.375)" fill="#2c9fd9"></path><path id="Path_63" data-name="Path 63" d="M44.8.368A2.183,2.183,0,0,0,42.561.258L58.142,15.84l5.134-5.134C59.65,8.678,53.83,5.422,44.8.368Z" transform="translate(-14.853 1)" fill="#29cc5e"></path><path id="Path_64" data-name="Path 64" d="M58.142,252.126,42.561,267.707A2.168,2.168,0,0,0,44.8,267.6c8.754-4.9,14.508-8.12,18.175-10.165l.3-.169Z" transform="translate(-14.853 -235.756)" fill="#d93f21"></path><path id="Path_65" data-name="Path 65" d="M306.138,177.924a2.172,2.172,0,0,0-1.118-1.909s-1.39-.775-5.65-3.158l-5.067,5.067L299.375,183c4.213-2.366,5.645-3.163,5.645-3.163A2.172,2.172,0,0,0,306.138,177.924Z" transform="translate(-251.249 -161.319)" fill="#ffd500"></path><path id="Path_66" data-name="Path 66" d="M305.02,257.889a2.172,2.172,0,0,0,1.118-1.909H294.3l5.072,5.072C303.589,258.687,305.02,257.889,305.02,257.889Z" transform="translate(-251.249 -239.375)" fill="#fa0"></path></g></g></svg>