<svg xmlns="http://www.w3.org/2000/svg" width="79.751" height="75" viewBox="0 0 79.751 75">
  <g id="Group_3032" data-name="Group 3032" transform="translate(287.699 115.199)">
    <path id="Path_10689" data-name="Path 10689" d="M-209.246-115.2H-267.9a1.3,1.3,0,0,0-1.3,1.3v15.359h-17.2a1.3,1.3,0,0,0-1.3,1.3V-41.5a1.3,1.3,0,0,0,1.3,1.3h53.968a1.3,1.3,0,0,0,1.3-1.3l1.875-15.36h11.576a1.3,1.3,0,0,0,1.3-1.3l8.438-55.746A1.3,1.3,0,0,0-209.246-115.2Zm-16.984,19.254-5.625,36.491h-40.373V-76.009h15.744a1.3,1.3,0,0,0,1.3-1.3,1.3,1.3,0,0,0-1.3-1.3h-17.042a1.3,1.3,0,0,0-1.3,1.3v19.152a1.3,1.3,0,0,0,1.3,1.3h41.672L-233.731-42.8H-285.1V-95.945Zm1.3-2.6H-266.6V-112.6h56.059l-8.438,53.149H-229.26l5.625-37.789A1.3,1.3,0,0,0-224.932-98.542Z" transform="translate(0 0)" fill="#0080ff"/>
    <path id="Path_10690" data-name="Path 10690" d="M-225.72-49.852a3.463,3.463,0,0,0,3.462-3.457,3.463,3.463,0,0,0-3.462-3.457,3.462,3.462,0,0,0-3.46,3.457A3.462,3.462,0,0,0-225.72-49.852Zm-.864-3.457a.863.863,0,0,1,.864-.86.864.864,0,0,1,.865.86.864.864,0,0,1-.865.86A.863.863,0,0,1-226.583-53.309Z" transform="translate(-24.033 -23.998)" fill="#0080ff"/>
  </g>
</svg>
